<mxfile host="app.diagrams.net" agent="Mozilla/5.0 (Windows NT 10.0; Win64; x64) AppleWebKit/537.36 (KHTML, like Gecko) Chrome/134.0.0.0 Safari/537.36" version="26.1.0" pages="2">
  <diagram name="01-13-03" id="-GWerZj08Lk_CjG5ycY0">
    <mxGraphModel dx="1050" dy="557" grid="1" gridSize="10" guides="1" tooltips="1" connect="1" arrows="1" fold="1" page="1" pageScale="1" pageWidth="827" pageHeight="1169" math="0" shadow="0">
      <root>
        <mxCell id="0" />
        <mxCell id="1" parent="0" />
        <mxCell id="nASGyxKoHISY1i5TsL08-20" value="&lt;div&gt;Fazer&lt;/div&gt;Reserva" style="ellipse;whiteSpace=wrap;html=1;" vertex="1" parent="1">
          <mxGeometry x="200" y="160" width="120" height="80" as="geometry" />
        </mxCell>
        <mxCell id="nASGyxKoHISY1i5TsL08-28" value="" style="edgeStyle=orthogonalEdgeStyle;rounded=0;orthogonalLoop=1;jettySize=auto;html=1;" edge="1" parent="1" source="nASGyxKoHISY1i5TsL08-22" target="nASGyxKoHISY1i5TsL08-20">
          <mxGeometry relative="1" as="geometry" />
        </mxCell>
        <mxCell id="nASGyxKoHISY1i5TsL08-22" value="Cliente" style="shape=umlActor;verticalLabelPosition=bottom;verticalAlign=top;html=1;outlineConnect=0;" vertex="1" parent="1">
          <mxGeometry x="30" y="160" width="80" height="150" as="geometry" />
        </mxCell>
        <mxCell id="nASGyxKoHISY1i5TsL08-25" value="Cancelar&lt;div&gt;Reserva&lt;/div&gt;" style="ellipse;whiteSpace=wrap;html=1;" vertex="1" parent="1">
          <mxGeometry x="200" y="280" width="120" height="80" as="geometry" />
        </mxCell>
        <mxCell id="nASGyxKoHISY1i5TsL08-44" value="" style="endArrow=classic;html=1;rounded=0;exitX=1;exitY=1;exitDx=0;exitDy=0;exitPerimeter=0;" edge="1" parent="1" target="nASGyxKoHISY1i5TsL08-25">
          <mxGeometry width="50" height="50" relative="1" as="geometry">
            <mxPoint x="111.2" y="240" as="sourcePoint" />
            <mxPoint x="199.99999999999994" y="373.76" as="targetPoint" />
          </mxGeometry>
        </mxCell>
      </root>
    </mxGraphModel>
  </diagram>
  <diagram id="a6u-1sVPOpbll4ff8m0j" name="02-13-03">
    <mxGraphModel dx="1235" dy="655" grid="1" gridSize="10" guides="1" tooltips="1" connect="1" arrows="1" fold="1" page="1" pageScale="1" pageWidth="827" pageHeight="1169" math="0" shadow="0">
      <root>
        <mxCell id="0" />
        <mxCell id="1" parent="0" />
        <mxCell id="Z504iCug5KrQmN7R4j0h-1" value="Cliente" style="shape=umlActor;verticalLabelPosition=bottom;verticalAlign=top;html=1;outlineConnect=0;fillColor=light-dark(#99CCFF,var(--ge-dark-color, #121212));" parent="1" vertex="1">
          <mxGeometry x="24" y="320" width="70" height="120" as="geometry" />
        </mxCell>
        <mxCell id="Z504iCug5KrQmN7R4j0h-3" value="Checar Saldo" style="ellipse;whiteSpace=wrap;html=1;fillColor=#dae8fc;strokeColor=light-dark(#000000, #5c79a3);" parent="1" vertex="1">
          <mxGeometry x="370" y="160" width="120" height="80" as="geometry" />
        </mxCell>
        <mxCell id="Z504iCug5KrQmN7R4j0h-4" value="Depositar" style="ellipse;whiteSpace=wrap;html=1;fillColor=#dae8fc;strokeColor=#000000;" parent="1" vertex="1">
          <mxGeometry x="370" y="260" width="120" height="80" as="geometry" />
        </mxCell>
        <mxCell id="Z504iCug5KrQmN7R4j0h-5" value="Sacar" style="ellipse;whiteSpace=wrap;html=1;fillColor=#dae8fc;strokeColor=default;" parent="1" vertex="1">
          <mxGeometry x="370" y="360" width="120" height="80" as="geometry" />
        </mxCell>
        <mxCell id="Z504iCug5KrQmN7R4j0h-6" value="Tranferir" style="ellipse;whiteSpace=wrap;html=1;fillColor=#dae8fc;strokeColor=light-dark(#000000, #5c79a3);" parent="1" vertex="1">
          <mxGeometry x="364" y="460" width="120" height="80" as="geometry" />
        </mxCell>
        <mxCell id="Z504iCug5KrQmN7R4j0h-8" value="" style="endArrow=classic;html=1;rounded=0;exitX=1;exitY=0.3333333333333333;exitDx=0;exitDy=0;exitPerimeter=0;entryX=0;entryY=0.5;entryDx=0;entryDy=0;" parent="1" source="Z504iCug5KrQmN7R4j0h-1" target="Z504iCug5KrQmN7R4j0h-3" edge="1">
          <mxGeometry width="50" height="50" relative="1" as="geometry">
            <mxPoint x="394" y="390" as="sourcePoint" />
            <mxPoint x="444" y="340" as="targetPoint" />
            <Array as="points">
              <mxPoint x="94" y="360" />
            </Array>
          </mxGeometry>
        </mxCell>
        <mxCell id="Z504iCug5KrQmN7R4j0h-10" value="" style="endArrow=classic;html=1;rounded=0;entryX=0;entryY=0.5;entryDx=0;entryDy=0;" parent="1" source="Z504iCug5KrQmN7R4j0h-1" target="Z504iCug5KrQmN7R4j0h-5" edge="1">
          <mxGeometry width="50" height="50" relative="1" as="geometry">
            <mxPoint x="104" y="390" as="sourcePoint" />
            <mxPoint x="374" y="310" as="targetPoint" />
          </mxGeometry>
        </mxCell>
        <mxCell id="Z504iCug5KrQmN7R4j0h-11" value="" style="endArrow=classic;html=1;rounded=0;entryX=0.057;entryY=0.348;entryDx=0;entryDy=0;entryPerimeter=0;" parent="1" source="Z504iCug5KrQmN7R4j0h-1" target="Z504iCug5KrQmN7R4j0h-6" edge="1">
          <mxGeometry width="50" height="50" relative="1" as="geometry">
            <mxPoint x="144" y="350" as="sourcePoint" />
            <mxPoint x="354" y="500" as="targetPoint" />
          </mxGeometry>
        </mxCell>
        <mxCell id="Z504iCug5KrQmN7R4j0h-16" value="Banco" style="shape=umlActor;verticalLabelPosition=bottom;verticalAlign=top;html=1;outlineConnect=0;direction=east;fillColor=light-dark(#99CCFF,var(--ge-dark-color, #121212));" parent="1" vertex="1">
          <mxGeometry x="734" y="440" width="70" height="120" as="geometry" />
        </mxCell>
        <mxCell id="Z504iCug5KrQmN7R4j0h-21" value="" style="endArrow=classic;html=1;rounded=0;exitX=0;exitY=0.3333333333333333;exitDx=0;exitDy=0;exitPerimeter=0;entryX=1;entryY=0.5;entryDx=0;entryDy=0;" parent="1" source="Z504iCug5KrQmN7R4j0h-16" target="Z504iCug5KrQmN7R4j0h-3" edge="1">
          <mxGeometry width="50" height="50" relative="1" as="geometry">
            <mxPoint x="394" y="390" as="sourcePoint" />
            <mxPoint x="444" y="340" as="targetPoint" />
          </mxGeometry>
        </mxCell>
        <mxCell id="Z504iCug5KrQmN7R4j0h-23" value="" style="endArrow=classic;html=1;rounded=0;" parent="1" edge="1">
          <mxGeometry width="50" height="50" relative="1" as="geometry">
            <mxPoint x="724" y="500" as="sourcePoint" />
            <mxPoint x="484" y="400" as="targetPoint" />
          </mxGeometry>
        </mxCell>
        <mxCell id="Z504iCug5KrQmN7R4j0h-24" value="" style="endArrow=classic;html=1;rounded=0;entryX=1;entryY=0.5;entryDx=0;entryDy=0;" parent="1" edge="1" target="Z504iCug5KrQmN7R4j0h-4">
          <mxGeometry width="50" height="50" relative="1" as="geometry">
            <mxPoint x="724" y="490" as="sourcePoint" />
            <mxPoint x="474" y="330" as="targetPoint" />
          </mxGeometry>
        </mxCell>
        <mxCell id="Z504iCug5KrQmN7R4j0h-25" value="" style="endArrow=classic;html=1;rounded=0;entryX=0;entryY=0.5;entryDx=0;entryDy=0;" parent="1" target="Z504iCug5KrQmN7R4j0h-4" edge="1">
          <mxGeometry width="50" height="50" relative="1" as="geometry">
            <mxPoint x="94" y="371" as="sourcePoint" />
            <mxPoint x="364" y="389" as="targetPoint" />
          </mxGeometry>
        </mxCell>
        <mxCell id="Z504iCug5KrQmN7R4j0h-26" value="" style="endArrow=classic;html=1;rounded=0;" parent="1" edge="1">
          <mxGeometry width="50" height="50" relative="1" as="geometry">
            <mxPoint x="724" y="520" as="sourcePoint" />
            <mxPoint x="484" y="500" as="targetPoint" />
          </mxGeometry>
        </mxCell>
        <mxCell id="Z504iCug5KrQmN7R4j0h-28" value="Manutenção" style="ellipse;whiteSpace=wrap;html=1;fillColor=#dae8fc;strokeColor=#000000;" parent="1" vertex="1">
          <mxGeometry x="364" y="620" width="120" height="80" as="geometry" />
        </mxCell>
        <mxCell id="Z504iCug5KrQmN7R4j0h-29" value="Reparo" style="ellipse;whiteSpace=wrap;html=1;fillColor=#dae8fc;strokeColor=#000000;" parent="1" vertex="1">
          <mxGeometry x="364" y="720" width="120" height="80" as="geometry" />
        </mxCell>
        <mxCell id="Z504iCug5KrQmN7R4j0h-30" value="" style="endArrow=classic;html=1;rounded=0;entryX=1;entryY=0.5;entryDx=0;entryDy=0;" parent="1" target="Z504iCug5KrQmN7R4j0h-28" edge="1">
          <mxGeometry width="50" height="50" relative="1" as="geometry">
            <mxPoint x="724" y="530" as="sourcePoint" />
            <mxPoint x="494" y="650" as="targetPoint" />
          </mxGeometry>
        </mxCell>
        <mxCell id="Z504iCug5KrQmN7R4j0h-31" value="" style="endArrow=classic;html=1;rounded=0;entryX=1;entryY=0.5;entryDx=0;entryDy=0;" parent="1" edge="1" target="Z504iCug5KrQmN7R4j0h-29">
          <mxGeometry width="50" height="50" relative="1" as="geometry">
            <mxPoint x="724" y="550" as="sourcePoint" />
            <mxPoint x="474" y="780" as="targetPoint" />
          </mxGeometry>
        </mxCell>
        <mxCell id="Z504iCug5KrQmN7R4j0h-32" value="Técnico" style="shape=umlActor;verticalLabelPosition=bottom;verticalAlign=top;html=1;outlineConnect=0;fillColor=light-dark(#99CCFF,var(--ge-dark-color, #121212));" parent="1" vertex="1">
          <mxGeometry x="34" y="680" width="70" height="120" as="geometry" />
        </mxCell>
        <mxCell id="Z504iCug5KrQmN7R4j0h-33" value="" style="endArrow=classic;html=1;rounded=0;entryX=0;entryY=0.5;entryDx=0;entryDy=0;" parent="1" target="Z504iCug5KrQmN7R4j0h-29" edge="1">
          <mxGeometry width="50" height="50" relative="1" as="geometry">
            <mxPoint x="114" y="760" as="sourcePoint" />
            <mxPoint x="364" y="840" as="targetPoint" />
          </mxGeometry>
        </mxCell>
        <mxCell id="Z504iCug5KrQmN7R4j0h-34" value="" style="endArrow=classic;html=1;rounded=0;entryX=0;entryY=0.5;entryDx=0;entryDy=0;" parent="1" target="Z504iCug5KrQmN7R4j0h-28" edge="1">
          <mxGeometry width="50" height="50" relative="1" as="geometry">
            <mxPoint x="114" y="730" as="sourcePoint" />
            <mxPoint x="364" y="770" as="targetPoint" />
          </mxGeometry>
        </mxCell>
        <mxCell id="Z504iCug5KrQmN7R4j0h-35" value="Sistema de caixa eletrõnico" style="text;html=1;align=center;verticalAlign=middle;resizable=0;points=[];autosize=1;strokeColor=none;fillColor=none;labelBackgroundColor=default;fontSize=30;fontColor=default;" parent="1" vertex="1">
          <mxGeometry x="229" y="60" width="390" height="50" as="geometry" />
        </mxCell>
        <mxCell id="Z504iCug5KrQmN7R4j0h-36" value="" style="endArrow=none;html=1;rounded=0;" parent="1" edge="1">
          <mxGeometry width="50" height="50" relative="1" as="geometry">
            <mxPoint x="160" y="920" as="sourcePoint" />
            <mxPoint x="160" y="40" as="targetPoint" />
          </mxGeometry>
        </mxCell>
        <mxCell id="Z504iCug5KrQmN7R4j0h-37" value="" style="endArrow=none;html=1;rounded=0;" parent="1" edge="1">
          <mxGeometry width="50" height="50" relative="1" as="geometry">
            <mxPoint x="680" y="920" as="sourcePoint" />
            <mxPoint x="680" y="40" as="targetPoint" />
          </mxGeometry>
        </mxCell>
        <mxCell id="Z504iCug5KrQmN7R4j0h-39" value="" style="endArrow=none;html=1;rounded=0;" parent="1" edge="1">
          <mxGeometry width="50" height="50" relative="1" as="geometry">
            <mxPoint x="160" y="40" as="sourcePoint" />
            <mxPoint x="680" y="40" as="targetPoint" />
          </mxGeometry>
        </mxCell>
        <mxCell id="Z504iCug5KrQmN7R4j0h-42" value="" style="endArrow=none;html=1;rounded=0;" parent="1" edge="1">
          <mxGeometry width="50" height="50" relative="1" as="geometry">
            <mxPoint x="160" y="920" as="sourcePoint" />
            <mxPoint x="680" y="920" as="targetPoint" />
          </mxGeometry>
        </mxCell>
        <mxCell id="dfuI8JY3edW6BHKsuAMu-1" style="edgeStyle=orthogonalEdgeStyle;rounded=0;orthogonalLoop=1;jettySize=auto;html=1;exitX=0.5;exitY=1;exitDx=0;exitDy=0;" edge="1" parent="1" source="Z504iCug5KrQmN7R4j0h-4" target="Z504iCug5KrQmN7R4j0h-4">
          <mxGeometry relative="1" as="geometry" />
        </mxCell>
      </root>
    </mxGraphModel>
  </diagram>
</mxfile>
